<?xml version="1.0" encoding="iso-8859-1"?>
<!-- Uploaded to: SVG Repo, www.svgrepo.com, Generator: SVG Repo Mixer Tools -->
<!DOCTYPE svg PUBLIC "-//W3C//DTD SVG 1.1//EN" "http://www.w3.org/Graphics/SVG/1.1/DTD/svg11.dtd">
<svg fill="#000000" height="800px" width="800px" version="1.1" id="Capa_1" xmlns="http://www.w3.org/2000/svg" xmlns:xlink="http://www.w3.org/1999/xlink" 
	 viewBox="0 0 431.755 431.755" xml:space="preserve">
<path d="M357.439,269.928l-56.251-24.085c-2.514-1.076-5.358-1.076-7.871,0l-55.742,23.861c-2.185,1.132-6.123,2.777-5.935,9.166
	c0,0.001,0,0.002,0,0.003c0,0.011,0,0.021,0,0.033c0,0.004,0,0.009,0,0.014c0,0.004,0,0.008,0,0.012c0,0.006,0,0.012,0,0.019
	c0,0.003,0,0.006,0,0.01c0,0.009,0,0.019,0,0.028V397.8c0,4.002,2.214,7.618,5.893,9.193c0,0,56.083,24.06,56.239,24.118
	c1.155,0.436,2.323,0.644,3.496,0.644c1.093,0,2.16-0.181,3.18-0.524c0.007-0.003,0.009-0.006,0.017-0.007
	c0.245-0.083,56.894-24.23,56.894-24.23c3.679-1.575,6.281-5.191,6.281-9.193V279.218
	C363.641,272.377,357.439,269.928,357.439,269.928z M287.641,406.594l-36-15.391v-97.057l36,15.391V406.594z M297.253,292.062
	l-30.543-13.073l30.543-13.074l30.542,13.074L297.253,292.062z M343.641,391.203l-36,15.391v-97.058l36-15.39V391.203z
	 M145.614,149.65c10.719,6.367,22.735,9.551,34.753,9.551s24.036-3.184,34.754-9.552c25.498-15.148,39.325-45.113,37.937-82.213
	c-1.558-41.654-33.533-63.356-65.034-67.209c-2.444-0.299-12.836-0.302-15.26-0.007c-31.516,3.834-63.527,25.536-65.089,67.217
	C106.288,104.535,120.116,134.501,145.614,149.65z M180.365,19.652c17.006,0.686,34.303,7.786,44.254,22.028
	c-28.044,12.625-62.896,20.809-96.691,22.693C130.969,34.822,155.965,20.635,180.365,19.652z M232.213,60.188
	c0.462,2.54,0.755,5.205,0.859,7.996c1.106,29.554-9.16,52.979-28.166,64.271c-15.135,8.993-33.94,8.993-49.077,0
	c-15.381-9.138-25.039-26.224-27.578-48.071C164.408,82.451,201.862,73.721,232.213,60.188z M222.906,211.116l-18.597,23.276
	c-3.447,4.314-9.74,5.018-14.055,1.57c-4.314-3.447-5.018-9.74-1.57-14.055l15.102-18.903c-7.333-1.996-15.234-3.059-23.464-3.077
	c-8.147,0.019-16.511,1.144-24.497,3.452l14.799,18.517c3.447,4.315,2.744,10.597-1.57,14.044
	c-4.315,3.448-10.607,2.723-14.055-1.592l-18.107-22.706c-12.607,7.904-22.269,19.839-25.337,36.403L90.138,363.419h101.396
	c5.523,0,10,4.477,10,10c0,5.522-4.477,10-10,10H78.114c-2.971,0-5.789-1.118-7.688-3.402s-2.686-5.093-2.144-8.013L91.89,244.697
	c7.816-42.196,45.933-62.136,82.302-64.219c1.92-0.11,10.575-0.107,12.588,0.008c29.338,1.674,55.067,14.305,69.723,34.948
	c3.197,4.503,2.139,10.716-2.365,13.913c-4.505,3.198-10.747,2.123-13.943-2.38C235.744,220.696,229.856,215.347,222.906,211.116z"
	/>
</svg>